<svg xmlns="http://www.w3.org/2000/svg" width="17.778" height="16" viewBox="0 0 17.778 16"><path d="M10.111,16.056v-.889H3.9l-.009,3.556A1.772,1.772,0,0,0,5.667,20.5H18.111a1.772,1.772,0,0,0,1.778-1.778V15.167H13.667v.889Zm8.889-8H15.436V6.278L13.658,4.5H10.1L8.324,6.278V8.056H4.778A1.783,1.783,0,0,0,3,9.833V12.5a1.772,1.772,0,0,0,1.778,1.778h5.333V12.5h3.556v1.778H19A1.783,1.783,0,0,0,20.778,12.5V9.833A1.783,1.783,0,0,0,19,8.056Zm-5.333,0H10.111V6.278h3.556Z" transform="translate(-3 -4.5)" fill="#fff"/></svg>