<svg xmlns="http://www.w3.org/2000/svg" width="14" height="16" viewBox="0 0 14 16"><path d="M14,12c-.876,0-.977-1-2.328-1s-1.463,1-2.336,1S8.353,11,7,11s-1.476,1-2.328,1c-.88,0-.975-1-2.336-1S.878,12,0,12V9.5A1.5,1.5,0,0,1,1.5,8H2V3.5H4V8H6V3.5H8V8h2V3.5h2V8h.5A1.5,1.5,0,0,1,14,9.5Zm0,4H0V13c1.355,0,1.461-1,2.336-1s.977,1,2.336,1C6.011,13,6.147,12,7,12c.88,0,.975,1,2.336,1s1.461-1,2.336-1c.859,0,.977,1,2.328,1ZM3,3A1,1,0,0,1,2,2c0-.969,1-.719,1-2,.375,0,1,.922,1,1.75S3.555,3,3,3ZM7,3A1,1,0,0,1,6,2c0-.969,1-.719,1-2,.375,0,1,.922,1,1.75S7.555,3,7,3Zm4,0a1,1,0,0,1-1-1c0-.969,1-.719,1-2,.375,0,1,.922,1,1.75S11.555,3,11,3Z" fill="#fff"/></svg>