<svg xmlns="http://www.w3.org/2000/svg" width="20.365" height="16" viewBox="0 0 20.365 16"><path d="M21.16,5.625H3.71a1.467,1.467,0,0,0-1.46,1.46V20.165a1.464,1.464,0,0,0,1.46,1.459H21.155a1.464,1.464,0,0,0,1.46-1.459V7.085A1.46,1.46,0,0,0,21.16,5.625ZM6.251,20.175a.365.365,0,0,1-.364.364H3.7a.365.365,0,0,1-.364-.364V17.992a.365.365,0,0,1,.364-.364H5.887a.365.365,0,0,1,.364.364Zm0-3.637a.365.365,0,0,1-.364.364H3.7a.365.365,0,0,1-.364-.364V14.355a.365.365,0,0,1,.364-.364H5.887a.365.365,0,0,1,.364.364Zm0-3.637a.365.365,0,0,1-.364.364H3.7a.365.365,0,0,1-.364-.364V10.717a.365.365,0,0,1,.364-.364H5.887a.365.365,0,0,1,.364.364Zm0-3.637a.365.365,0,0,1-.364.364H3.7a.365.365,0,0,1-.364-.364V7.08A.365.365,0,0,1,3.7,6.716H5.887a.365.365,0,0,1,.364.364ZM16.8,14.173H8.07a.546.546,0,1,1,0-1.091H16.8a.546.546,0,0,1,0,1.091Zm4.729,6a.365.365,0,0,1-.364.364H18.982a.365.365,0,0,1-.364-.364V17.992a.365.365,0,0,1,.364-.364h2.182a.365.365,0,0,1,.364.364Zm0-3.637a.365.365,0,0,1-.364.364H18.982a.365.365,0,0,1-.364-.364V14.355a.365.365,0,0,1,.364-.364h2.182a.365.365,0,0,1,.364.364Zm0-3.637a.365.365,0,0,1-.364.364H18.982a.365.365,0,0,1-.364-.364V10.717a.365.365,0,0,1,.364-.364h2.182a.365.365,0,0,1,.364.364Zm0-3.637a.365.365,0,0,1-.364.364H18.982a.365.365,0,0,1-.364-.364V7.08a.365.365,0,0,1,.364-.364h2.182a.365.365,0,0,1,.364.364Z" transform="translate(-2.25 -5.625)" fill="#fff"/></svg>