<svg xmlns="http://www.w3.org/2000/svg" width="18" height="18" viewBox="0 0 18 18"><g transform="translate(0.215 0)"><path d="M3.067,18H.444A.444.444,0,0,1,0,17.557V14.373a.443.443,0,0,1,.131-.313L5.947,8.243a6.082,6.082,0,1,1,3.531,3.53L8.067,13.184a.449.449,0,0,1-.313.13H6.8v.954a.444.444,0,0,1-.443.443H5.921v.434a.443.443,0,0,1-.442.443H4.394v1.085a.444.444,0,0,1-.131.314l-.883.883A.45.45,0,0,1,3.067,18Zm2.957-7.614a.4.4,0,0,1,.282.681L.887,16.487v.627h2l.624-.623V15.145a.443.443,0,0,1,.443-.442H5.035v-.435a.444.444,0,0,1,.443-.443h.434V12.87a.444.444,0,0,1,.443-.443H7.569l1.489-1.489a.452.452,0,0,1,.314-.13.441.441,0,0,1,.178.037,5.146,5.146,0,0,0,2.086.435A5.192,5.192,0,1,0,6.875,8.17a.439.439,0,0,1-.089.487l-5.9,5.9v.8L5.742,10.5A.4.4,0,0,1,6.024,10.386Z" transform="translate(0)" fill="#fff"/><path d="M1.66,3.321A1.661,1.661,0,1,1,3.321,1.66,1.662,1.662,0,0,1,1.66,3.321Zm0-2.434a.774.774,0,1,0,.774.774A.774.774,0,0,0,1.66.887Z" transform="translate(11.828 2.572)" fill="#fff"/></g></svg>