<svg xmlns="http://www.w3.org/2000/svg" width="48.5" height="48.5" viewBox="0 0 48.5 48.5"><g transform="translate(-340.75 -1377.75)"><circle cx="24" cy="24" r="24" transform="translate(341 1378)" fill="#fff" stroke="#111315" stroke-width="0.5"/><g transform="translate(75.078 -2.8)"><path d="M16.835,13.887A5.721,5.721,0,0,1,19.356,9.35,5.5,5.5,0,0,0,15.071,7c-1.848-.168-3.613,1.092-4.537,1.092S8.181,7,6.585,7.081a5.7,5.7,0,0,0-4.873,2.941c-2.1,3.613-.5,8.99,1.512,11.847,1.008,1.428,2.185,3.025,3.7,2.941s2.1-.924,3.865-.924,2.353.924,3.865.924c1.6,0,2.6-1.428,3.613-2.857a15.341,15.341,0,0,0,1.68-3.361A5.375,5.375,0,0,1,16.835,13.887Z" transform="translate(279.2 1391.516)"/><path d="M15.724,3.981A5.008,5.008,0,0,0,16.9.2a5.709,5.709,0,0,0-3.445,1.764A4.888,4.888,0,0,0,12.2,5.577,4.148,4.148,0,0,0,15.724,3.981Z" transform="translate(277.371 1392.6)"/></g></g></svg>