<svg xmlns="http://www.w3.org/2000/svg" xmlns:xlink="http://www.w3.org/1999/xlink" width="48" height="48" viewBox="0 0 48 48"><defs><clipPath id="a"><rect width="48" height="48" fill="none"/></clipPath><clipPath id="b"><path d="M271.08,226.09a13.779,13.779,0,0,0-.218-2.455h-11.3v4.642h6.458a5.521,5.521,0,0,1-2.395,3.622v3.011H267.5a11.7,11.7,0,0,0,3.578-8.82Zm0,0" transform="translate(-259.56 -223.635)" fill="none" clip-rule="evenodd"/></clipPath><clipPath id="c"><path d="M111.207,299.542a11.456,11.456,0,0,0,7.942-2.907l-3.878-3.011a7.24,7.24,0,0,1-10.778-3.8h-4.009v3.109a12,12,0,0,0,10.724,6.611Zm0,0" transform="translate(-100.483 -289.822)" fill="none" clip-rule="evenodd"/></clipPath><clipPath id="d"><path d="M86.834,183.726a7.093,7.093,0,0,1,0-4.56v-3.109H82.825a12.015,12.015,0,0,0,0,10.778l4.009-3.109Zm0,0" transform="translate(-81.549 -176.057)" fill="none" clip-rule="evenodd"/></clipPath><clipPath id="e"><path d="M111.207,82.762a6.483,6.483,0,0,1,4.587,1.795l3.442-3.442a11.532,11.532,0,0,0-8.029-3.125A12,12,0,0,0,100.483,84.6l4.009,3.109a7.151,7.151,0,0,1,6.715-4.947Zm0,0" transform="translate(-100.483 -77.989)" fill="none" clip-rule="evenodd"/></clipPath></defs><g clip-path="url(#a)"><g transform="translate(-215 -640)"><circle cx="24" cy="24" r="24" transform="translate(215 640)" fill="#fff"/><g transform="translate(145.451 574.011)"><g transform="translate(93.549 87.807)"><g transform="translate(0 0)" clip-path="url(#b)"><rect width="24.853" height="24.608" transform="translate(-6.667 -6.667)" fill="#3e82f1"/></g></g><g transform="translate(82.825 92.269)"><g transform="translate(0)" clip-path="url(#c)"><rect width="31.999" height="23.053" transform="translate(-6.667 -6.667)" fill="#32a753"/></g></g><g transform="translate(81.549 84.6)"><g transform="translate(0 0)" clip-path="url(#d)"><rect width="18.619" height="24.112" transform="translate(-6.667 -6.667)" fill="#f9bb00"/></g></g><g transform="translate(82.825 77.989)"><g transform="translate(0 0)" clip-path="url(#e)"><rect width="32.086" height="23.053" transform="translate(-6.667 -6.667)" fill="#e74133"/></g></g></g></g></g></svg>