<svg xmlns="http://www.w3.org/2000/svg" width="16.884" height="16" viewBox="0 0 16.884 16"><g transform="translate(0 0)"><path d="M32.8,18.476a.762.762,0,0,1-.526-.206l-1.5-1.563L29.24,18.27a.664.664,0,0,1-.526.206.762.762,0,0,1-.526-.206.779.779,0,0,1,0-1.069l1.538-1.563-1.538-1.563a.779.779,0,0,1,0-1.069.776.776,0,0,1,1.052,0l1.5,1.563,1.538-1.563A.664.664,0,0,1,32.8,12.8a.762.762,0,0,1,.526.206.779.779,0,0,1,0,1.069l-1.5,1.563,1.5,1.563a.687.687,0,0,1,.2.535.789.789,0,0,1-.2.535A.762.762,0,0,1,32.8,18.476Z" transform="translate(-16.655 -7.617)" fill="#fff"/><path d="M7.527.2h.486A1.766,1.766,0,0,0,6.394,1.311L5.058,4.766H1.74A1.742,1.742,0,0,0,0,6.534V9.907a1.732,1.732,0,0,0,1.74,1.728H5.18l1.214,3.414A1.7,1.7,0,0,0,8.012,16.2H7.527a1.742,1.742,0,0,0,1.74-1.769V1.969A1.8,1.8,0,0,0,7.527.2Z" transform="translate(0 -0.2)" fill="#fff"/></g></svg>