<svg xmlns="http://www.w3.org/2000/svg" width="19.053" height="20" viewBox="0 0 19.053 20"><g transform="translate(-11.686)"><g transform="translate(11.686 0.01)"><g transform="translate(0)"><path d="M25.629,8.377,14.51.729A2.452,2.452,0,0,0,13.171.248c-.893,0-1.485.749-1.485,1.955V18.284a2.388,2.388,0,0,0,.425,1.423,1.342,1.342,0,0,0,1.1.531,2.4,2.4,0,0,0,1.32-.481l11.109-7.648a2.288,2.288,0,0,0,1.106-1.866A2.294,2.294,0,0,0,25.629,8.377Z" transform="translate(-11.686 -0.248)" fill="#fff"/></g></g><g transform="translate(28.085)"><g transform="translate(0)"><path d="M456.028,493.668h0Z" transform="translate(-454.412 -473.673)" fill="#fff"/><path d="M418.149,0h-.46a1.121,1.121,0,0,0-1.123,1.093v17.8a1.118,1.118,0,0,0,1.115,1.1l.488.006a1.074,1.074,0,0,0,1.051-1.1V1.093A1.077,1.077,0,0,0,418.149,0Z" transform="translate(-416.566)" fill="#fff"/></g></g></g></svg>