<svg xmlns="http://www.w3.org/2000/svg" width="13.569" height="11.241" viewBox="0 0 13.569 11.241"><g transform="translate(0 0)"><path d="M81.155,97.751H72.577a1.3,1.3,0,0,1-1.3-1.3V90.418a1.3,1.3,0,0,1,1.3-1.3h8.578a1.3,1.3,0,0,1,1.3,1.3v6.036A1.3,1.3,0,0,1,81.155,97.751Zm-8.578-7.715a.384.384,0,0,0-.384.384v6.036a.384.384,0,0,0,.384.384h8.578a.384.384,0,0,0,.384-.384V90.418a.384.384,0,0,0-.384-.384Z" transform="translate(-71.28 -89.12)" fill="#fff"/><rect width="8.565" height="6.524" rx="1" transform="translate(5.004 4.717)" fill="#fff"/><path d="M91.025,110.412l-.995-.995.736-.737c.154-.153.127-.372-.048-.393l-1.186-.144L88.346,108a.34.34,0,0,0-.346.346l.144,1.186.144,1.187c.022.174.24.2.394.048l.737-.737.995.995a.433.433,0,1,0,.613-.613Z" transform="translate(-86.499 -106.306)" fill="#fff"/></g></svg>