<svg xmlns="http://www.w3.org/2000/svg" width="26" height="21.517" viewBox="0 0 26 21.517"><path d="M6.065,7.873a.669.669,0,0,1,.684-.684h3.8V4.5H6.8A3.4,3.4,0,0,0,3.375,7.873v3.8h2.69Z" transform="translate(-2.009 -4.5)" fill="#fff"/><path d="M27.413,4.5H23.625V7.19h3.766a.7.7,0,0,1,.717.684v3.8H30.8v-3.8A3.368,3.368,0,0,0,27.413,4.5Z" transform="translate(-6.121 -4.5)" fill="#fff"/><path d="M28.108,26.243a.669.669,0,0,1-.684.684h-3.8v2.746h3.8A3.4,3.4,0,0,0,30.8,26.243V22.5h-2.69Z" transform="translate(-6.121 -8.155)" fill="#fff"/><path d="M6.748,26.927a.669.669,0,0,1-.684-.684V22.5H3.375v3.743A3.451,3.451,0,0,0,6.8,29.672h3.743V26.927Z" transform="translate(-2.009 -8.155)" fill="#fff"/><rect width="26" height="2.69" rx="1.345" transform="translate(0 9.862)" fill="#fff"/></svg>