<svg xmlns="http://www.w3.org/2000/svg" width="19.383" height="16" viewBox="0 0 19.383 16"><g transform="translate(11.228)"><path d="M28.745,22.148a5.374,5.374,0,0,0,5.1-5.574A5.374,5.374,0,0,0,28.745,11a.645.645,0,0,0,0,1.291A4.053,4.053,0,0,1,32.5,16.515,4.071,4.071,0,0,1,28.745,20.8a.651.651,0,0,0-.645.645A.7.7,0,0,0,28.745,22.148Z" transform="translate(-28.1 -8.594)" fill="#fff"/><path d="M28.745,20.146a.645.645,0,0,0,0,1.291,3.01,3.01,0,0,0,2.7-3.168,3.01,3.01,0,0,0-2.7-3.168.645.645,0,0,0,0,1.291c.7,0,1.349.88,1.349,1.819C30.095,19.266,29.449,20.146,28.745,20.146Z" transform="translate(-28.1 -10.289)" fill="#fff"/><path d="M28.745,6.9a.645.645,0,0,0,0,1.291,6.439,6.439,0,0,1,6.161,6.689,6.439,6.439,0,0,1-6.161,6.689.645.645,0,1,0,0,1.291,7.786,7.786,0,0,0,7.51-7.979A7.786,7.786,0,0,0,28.745,6.9Z" transform="translate(-28.1 -6.9)" fill="#fff"/></g><path d="M7.65,1.1h.494A1.794,1.794,0,0,0,6.5,2.211L5.141,5.666H1.769A1.7,1.7,0,0,0,0,7.393v3.373a1.756,1.756,0,0,0,1.769,1.769h3.5L6.5,15.948A1.731,1.731,0,0,0,8.144,17.1H7.65a1.756,1.756,0,0,0,1.769-1.769V2.828A1.8,1.8,0,0,0,7.65,1.1Z" transform="translate(0 -1.1)" fill="#fff"/></svg>